<?xml version="1.0" encoding="iso-8859-1"?>
<!-- Generator: Adobe Illustrator 19.0.0, SVG Export Plug-In . SVG Version: 6.00 Build 0)  -->
<svg version="1.1" id="Layer_1" xmlns="http://www.w3.org/2000/svg" xmlns:xlink="http://www.w3.org/1999/xlink" x="0px" y="0px"
	 viewBox="0 0 512 512" style="enable-background:new 0 0 512 512;" xml:space="preserve">
<g>
	<g>
		<g>
			<path d="M149.331,149.336h0.254c5.89,0,10.669-4.776,10.669-10.669c0-5.892-4.779-10.669-10.669-10.669h-0.254
				c-5.89,0-10.669,4.776-10.669,10.669C138.663,144.56,143.44,149.336,149.331,149.336z"/>
			<path d="M180.229,149.334h54.437c5.892,0,10.669-4.776,10.669-10.669c0-5.892-4.776-10.669-10.669-10.669h-54.437
				c-5.89,0-10.669,4.776-10.669,10.669C169.56,144.558,174.338,149.334,180.229,149.334z"/>
			<path d="M438.714,218.732l-10.081-60.35c-3.034-18.174-15.892-30.386-31.996-30.386h-65.969V74.665
				C330.668,33.495,297.171,0,255.998,0c-41.173,0-74.669,33.495-74.669,74.665v10.663h-65.965c-16.101,0-28.96,12.21-31.998,30.387
				l-10.081,60.351c-33.065,32.04-51.954,76.507-51.954,122.6c0,94.106,76.561,170.668,170.667,170.668h0.002
				c0.002,0,0.002,0,0.002,0c4.864,0,9.674-0.217,14.436-0.617C237.75,496.663,277.878,512,319.999,512
				c94.108,0,170.67-76.561,170.67-170.668C490.667,295.241,471.778,250.774,438.714,218.732z M396.637,149.333
				c6.535,0.001,9.981,6.767,10.949,12.564l8.592,51.435l-76.44-0.002c-4.294-7.446-9.154-14.581-14.549-21.332h6.578
				c5.892,0,10.669-4.776,10.669-10.669c0-5.892-4.776-10.669-10.669-10.669h-21.954l-3.563-21.327H396.637z M352.045,239.559
				c43.657,13.686,74.621,54.474,74.621,101.772c0,58.817-47.848,106.667-106.666,106.667c-12.107,0-24.079-2.069-35.39-6.04
				c46.94-30.441,78.061-83.298,78.061-143.291C362.67,278.339,358.99,258.328,352.045,239.559z M202.666,74.665h0.001
				c0-29.405,23.926-53.328,53.333-53.328c29.406,0,53.329,23.923,53.329,53.328v53.33h-6.643l-2.051-12.281
				c-3.038-18.174-15.896-30.386-32-30.386h-65.969V74.665z M160.872,444.725C93.421,430.366,42.668,370.336,42.668,298.667
				c0-41.413,17.431-81.328,47.824-109.512c1.892-1.755,3.036-4.085,3.332-6.538l10.588-63.384
				c0.969-5.797,4.418-12.566,10.953-12.566h153.272c6.535,0,9.985,6.769,10.955,12.565l8.589,51.432l-96.017,0.002
				c-0.054,0-0.108-0.002-0.164-0.002c-70.58,0-128.001,57.423-128.001,128.003c0,60.68,42.441,111.634,99.198,124.735
				c-2.046,4.214-3.196,8.94-3.196,13.932C160,439.879,160.306,442.351,160.872,444.725z M159.869,400.384
				c-43.161-13.665-74.533-54.094-74.533-101.717c0-58.805,47.83-106.648,106.629-106.665c0.013,0,0.022,0.002,0.033,0.002h0.164
				c4.551,0.006,9.04,0.299,13.443,0.862l-4.324,25.872c-33.06,32.041-51.95,76.506-51.95,122.595
				C149.331,361.49,152.947,381.563,159.869,400.384z M192.002,447.997c-0.002,0-0.002,0-0.002,0
				c-5.881,0-10.662-4.784-10.662-10.663c0-5.88,4.783-10.663,10.662-10.663c5.881,0,10.664,4.784,10.664,10.663
				C202.665,443.213,197.881,447.997,192.002,447.997z M191.999,405.333c-2.37,0-4.72-0.086-7.053-0.239
				c-9.469-19.966-14.276-41.385-14.276-63.762c0-41.413,17.431-81.328,47.824-109.512c1.906-1.768,3.052-4.12,3.338-6.594
				l4.597-27.52c16.016,5.476,30.321,14.665,41.896,26.531c-19.787,8.781-37.356,22.606-50.478,39.959
				c-16.912,22.36-25.85,49.033-25.85,77.136c0,22.267,5.638,43.673,16.41,62.739C203.057,404.899,197.578,405.333,191.999,405.333z
				 M282.093,241.626c10.487,16.508,16.572,36.075,16.572,57.041c0.001,45.483-28.62,84.402-68.792,99.711
				c-10.835-17.043-16.539-36.608-16.539-57.047C213.333,297.136,241.251,257.202,282.093,241.626z M220.806,423.401
				c2.459-0.568,4.888-1.215,7.291-1.922c0.371-0.086,0.737-0.201,1.1-0.328c52.496-15.974,90.805-64.836,90.805-122.485
				c0-28.092-9.104-54.095-24.507-75.228c-0.359-0.602-0.771-1.159-1.231-1.669c-8.758-11.618-19.448-21.698-31.586-29.768h33.808
				c28.547,27.99,44.844,66.627,44.844,106.665c0,71.668-50.751,131.695-118.201,146.057c0.562-2.374,0.871-4.846,0.871-7.389
				C224.002,432.343,222.852,427.615,220.806,423.401z M288.873,487.405c-19.427-4.117-37.808-12.077-54.159-23.483
				c9.01-2.33,17.725-5.388,26.096-9.09c9.621,5.021,19.838,8.792,30.391,11.222c-2.051,4.217-3.203,8.948-3.203,13.944
				C287.998,482.549,288.306,485.026,288.873,487.405z M319.999,490.662c-5.881,0-10.662-4.784-10.662-10.663
				c0-5.88,4.782-10.663,10.662-10.663c5.882-0.001,10.667,4.783,10.667,10.663C330.665,485.879,325.882,490.662,319.999,490.662z
				 M351.131,487.388c0.564-2.374,0.871-4.846,0.871-7.389c0-4.991-1.15-9.718-3.196-13.932
				c56.757-13.102,99.197-64.055,99.197-124.734c0-44.167-22.509-83.598-57.185-106.662h33.672
				c28.545,27.991,44.84,66.627,44.84,106.662C469.33,412.998,418.58,473.026,351.131,487.388z"/>
			<path d="M362.414,192.003h0.256c5.891,0,10.669-4.776,10.669-10.669c0-5.892-4.777-10.669-10.669-10.669h-0.256
				c-5.892,0-10.669,4.776-10.669,10.669C351.745,187.226,356.52,192.003,362.414,192.003z"/>
		</g>
	</g>
</g>
<g>
</g>
<g>
</g>
<g>
</g>
<g>
</g>
<g>
</g>
<g>
</g>
<g>
</g>
<g>
</g>
<g>
</g>
<g>
</g>
<g>
</g>
<g>
</g>
<g>
</g>
<g>
</g>
<g>
</g>
</svg>
